PathFileType	4	(X/Y/Z)	C:\Users\Basilio\Documents\Thesis Gigler\squatting_fais\c3dfiles\041\SLS_pre_back5\markers_experimental.trc
DataRate	CameraRate	NumFrames	NumMarkers	Units	OrigDataRate	OrigDataStartFrame	OrigNumFrames
200.000000	200.000000	4	64	mm	200.000000	507	1353
Frame#	Time	FHD			LBHD			RBHD			C7			T10			CLAV			LSHO			LUUPA			LMUPA			LDUPA			LLEP			LMEP			LRAD			LUL			LRFIN			RSHO			RUPA1			RMUPA			RDUPA			RLEP			RMEP			RRAD			RUL			RUFIN			LASI			RASI			USACR			LSACR			RSACR			LTHI1			LTHI2			LTHI3			LTHI4			LLFC			LMFC			LTIB1			LTIB2			LTIB3			LTIB4			LLMAL			LMMAL			LHEE			LMT1			LMT2			LMT5			RTHI			RTHI2			RTHI3			RTHI4			RLFC			RMFC			RTIB1			RTIB2			RTIB3			RTIB4			RLMAL			RMMAL			RHEE			RMT1			RMT2			RMT5			*61			*62			*63			
		X1	Y1	Z1	X2	Y2	Z2	X3	Y3	Z3	X4	Y4	Z4	X5	Y5	Z5	X6	Y6	Z6	X7	Y7	Z7	X8	Y8	Z8	X9	Y9	Z9	X10	Y10	Z10	X11	Y11	Z11	X12	Y12	Z12	X13	Y13	Z13	X14	Y14	Z14	X15	Y15	Z15	X16	Y16	Z16	X17	Y17	Z17	X18	Y18	Z18	X19	Y19	Z19	X20	Y20	Z20	X21	Y21	Z21	X22	Y22	Z22	X23	Y23	Z23	X24	Y24	Z24	X25	Y25	Z25	X26	Y26	Z26	X27	Y27	Z27	X28	Y28	Z28	X29	Y29	Z29	X30	Y30	Z30	X31	Y31	Z31	X32	Y32	Z32	X33	Y33	Z33	X34	Y34	Z34	X35	Y35	Z35	X36	Y36	Z36	X37	Y37	Z37	X38	Y38	Z38	X39	Y39	Z39	X40	Y40	Z40	X41	Y41	Z41	X42	Y42	Z42	X43	Y43	Z43	X44	Y44	Z44	X45	Y45	Z45	X46	Y46	Z46	X47	Y47	Z47	X48	Y48	Z48	X49	Y49	Z49	X50	Y50	Z50	X51	Y51	Z51	X52	Y52	Z52	X53	Y53	Z53	X54	Y54	Z54	X55	Y55	Z55	X56	Y56	Z56	X57	Y57	Z57	X58	Y58	Z58	X59	Y59	Z59	X60	Y60	Z60	X61	Y61	Z61	X62	Y62	Z62	X63	Y63	Z63	X64	Y64	Z64	

508	2.535	-124.2573928833008	1691.525268554688	-1144.185180664063	-294.9134216308594	1609.9208984375	-1218.859497070313	-276.9991760253907	1618.8349609375	-1066.864868164063	-332.7464294433594	1487.139282226563	-1148.86279296875	-424.4267883300782	1197.42822265625	-1097.088134765625	-179.7125549316407	1411.32958984375	-1147.6708984375	-256.3775329589844	1488.3408203125	-1283.011352539063	-153.4541778564453	1472.4345703125	-1410.571411132813	-110.5166625976563	1486.460205078125	-1392.759521484375	-96.19905853271487	1471.845458984375	-1450.944458007813	-51.85948181152345	1467.936767578125	-1469.031616210938	-14.5919885635376	1397.412231445313	-1438.265502929688	228.9714813232422	1483.4755859375	-1496.713745117188	199.7371215820313	1500.411376953125	-1560.981567382813	284.5168457031251	1534.485961914063	-1506.456420898438	-245.7977447509766	1510.814331054688	-1032.548217773438	-109.6369171142578	1518.733764648438	-907.1429443359377	-89.83200073242189	1540.23388671875	-948.3815917968752	-42.72555923461915	1541.062622070313	-911.356140136719	2.510582923889161	1546.690307617188	-911.2889404296877	26.11431884765626	1464.496459960938	-924.219177246094	267.2014770507813	1554.305419921875	-981.2683715820315	266.3868103027344	1572.674438476563	-908.351013183594	344.3271179199219	1578.3076171875	-989.8384399414065	-295.0646667480469	978.4678344726565	-1186.258422851563	-310.9809570312501	976.8626708984377	-961.9107055664065	-461.0880126953126	1092.189453125	-1085.707397460938	-480.9846191406251	1070.04052734375	-1114.176513671875	-487.5586547851564	1069.837646484375	-1059.677368164063	-362.7640991210938	785.185485839844	-1247.593017578125	-301.6763305664063	726.8819580078126	-1235.278686523438	-260.8551940917969	745.8656616210939	-1221.042724609375	-310.1304016113282	667.0557861328126	-1220.560180664063	-241.1724090576172	511.229461669922	-1184.466186523438	-242.1439208984376	505.4592590332032	-1067.433959960938	-250.3617248535157	326.2852783203126	-1109.360595703125	-301.8935241699219	287.7781677246094	-1170.959716796875	-268.2779235839844	279.3293457031251	-1141.914794921875	-291.9165039062501	208.8447570800782	-1101.826416015625	-369.0236511230469	125.8282165527344	-1139.002685546875	-338.5300292968751	138.1661224365235	-1054.416625976563	-441.1392517089845	111.9770812988282	-1098.486328125	-238.3082733154297	63.84804534912111	-1052.136596679688	-226.9706573486329	55.62391662597658	-1096.22265625	-270.4718322753907	38.84519958496094	-1153.417602539063	-440.4333496093751	728.0025024414064	-891.1098632812502	-402.0486450195314	674.2043457031251	-883.0468750000002	-369.0165405273438	675.7119750976564	-884.7738037109377	-427.6380004882814	594.3712158203126	-898.2815551757815	-436.0420837402345	496.9233703613282	-900.9801025390627	-420.9124145507814	464.143524169922	-1011.257080078125	-548.6066284179689	380.1705932617188	-915.2348632812502	-655.7969360351564	413.274383544922	-922.1599731445315	-635.5435180664064	372.1161193847657	-914.0354614257815	-661.4415893554689	325.3236389160157	-943.5325927734377	-794.9097900390627	315.1145935058594	-947.2529907226565	-748.8283081054689	294.4025268554688	-1017.100708007813	-829.865417480469	357.7501220703126	-1010.08203125	-772.211364746094	148.725326538086	-1011.875183105469	-783.0823974609377	141.8849029541016	-960.684265136719	-830.909851074219	174.9898834228516	-928.081481933594	-4216.954589843751	853.100280761719	-3944.653564453126	nan	nan	nan	nan	nan	nan	
509	2.54	-123.9949264526367	1690.778198242188	-1144.19384765625	-294.7061767578126	1609.027465820313	-1218.656982421875	-276.7334594726563	1617.81689453125	-1066.552124023438	-332.4586791992188	1486.45751953125	-1148.7451171875	-424.7257690429689	1196.863159179688	-1096.978759765625	-179.8192138671875	1410.212158203125	-1147.339721679688	-256.0453186035157	1487.573120117188	-1282.733276367188	-153.1424560546875	1471.464599609375	-1410.4375	-109.9424514770508	1485.477905273438	-1392.462158203125	-95.94729614257814	1471.068115234375	-1450.771728515625	-51.78619766235353	1467.213989257813	-1468.976806640625	-14.81913852691651	1396.711059570313	-1438.386596679688	228.9547882080079	1482.7646484375	-1497.056030273438	199.7273864746094	1499.593994140625	-1561.1181640625	284.5178527832032	1533.705078125	-1506.842895507813	-245.4791870117188	1509.97021484375	-1032.44775390625	-109.353988647461	1518.022827148438	-907.1657714843752	-89.63216400146486	1539.353759765625	-948.5093383789065	-42.36962509155274	1540.216552734375	-911.5018310546877	3.010338068008424	1545.735229492188	-911.6147460937502	26.40388679504395	1463.664428710938	-924.7203369140627	267.6594543457032	1553.638305664063	-982.7178955078127	266.6510925292969	1571.639526367188	-909.0640258789065	345.2990417480469	1577.29443359375	-990.779724121094	-295.7736816406251	977.7542114257815	-1186.044189453125	-311.7899780273438	976.168151855469	-961.687438964844	-461.5503234863282	1091.585571289063	-1085.547729492188	-481.6113281250001	1069.475219726563	-1114.238525390625	-488.0169372558595	1069.427612304688	-1059.699829101563	-363.1707763671876	784.6943969726565	-1247.604858398438	-301.9004211425782	726.5509033203126	-1235.422241210938	-261.0806579589844	745.6806030273439	-1221.120971679688	-310.1647338867188	666.8865966796876	-1220.764404296875	-240.655746459961	510.9478454589845	-1184.695922851563	-241.7325744628907	505.2822265625001	-1067.494506835938	-249.9971771240235	326.1010131835938	-1109.418334960938	-301.3520507812501	287.4832763671876	-1171.74853515625	-267.8457946777344	279.3122863769532	-1141.855224609375	-291.8121643066407	208.8807678222657	-1101.18701171875	-369.0183105468751	125.7893447875977	-1139.050659179688	-338.5680847167969	138.1485748291016	-1054.398559570313	-441.122528076172	111.9644622802735	-1098.466064453125	-238.391586303711	63.85042953491212	-1052.095825195313	-226.9846496582032	55.50874328613283	-1096.047119140625	-270.4940795898438	38.82050704956055	-1153.431030273438	-440.885223388672	727.2475585937501	-891.2443847656252	-402.2442321777345	673.7143554687501	-883.1723632812502	-369.4899902343751	675.0363769531251	-884.8789062500002	-427.8312072753907	593.5917358398439	-898.4859619140627	-436.1268920898439	496.2631835937501	-901.3796997070315	-421.006317138672	463.3444213867189	-1011.496276855469	-548.9328002929689	379.6206665039063	-915.462097167969	-656.1986694335939	412.9671020507814	-922.3797607421877	-636.0811767578126	371.6294555664063	-914.037048339844	-661.8613891601564	324.8983459472657	-943.7268066406252	-795.4138793945315	314.9353637695313	-947.4883422851565	-749.4708862304689	294.2008972167969	-1017.290710449219	-830.426452636719	357.5001525878907	-1010.319152832031	-772.7937622070315	148.8318634033203	-1012.244140625	-783.448425292969	141.6579132080078	-961.1800537109377	-831.380310058594	174.5800933837891	-928.3684692382815	-4216.866210937501	853.116149902344	-3944.651855468751	nan	nan	nan	nan	nan	nan	
510	2.545	-123.834831237793	1689.882080078125	-1143.910888671875	-294.4663391113282	1608.057861328125	-1218.419921875	-276.1662292480469	1616.890625	-1066.775024414063	-332.2317504882813	1485.67724609375	-1148.450561523438	-425.0186157226564	1196.317626953125	-1096.919555664063	-179.5559997558594	1409.444091796875	-1147.225830078125	-255.7253417968751	1486.80517578125	-1282.482055664063	-153.0251922607422	1470.91064453125	-1410.211059570313	-109.7045669555664	1484.6796875	-1392.318115234375	-95.81942749023439	1470.346923828125	-1450.68115234375	-51.62572479248048	1466.525268554688	-1468.963989257813	-14.82442283630371	1395.828491210938	-1438.167236328125	228.7574310302735	1481.85009765625	-1497.104370117188	199.6239471435547	1498.845703125	-1561.280639648438	284.6100769042969	1532.653198242188	-1507.123779296875	-245.5258178710938	1509.110473632813	-1032.572998046875	-109.0794219970703	1517.296020507813	-907.1467895507815	-89.33158111572267	1538.286499023438	-948.5451660156252	-41.9602165222168	1539.39306640625	-911.7294921875002	3.427091360092164	1544.554321289063	-911.909362792969	26.85826873779298	1462.531494140625	-925.2335205078127	267.7685852050782	1552.55126953125	-983.3212890625002	267.0667114257813	1570.31298828125	-909.7141113281252	345.3073120117188	1576.075073242188	-991.4644775390627	-295.9046020507813	976.6966552734377	-1185.7744140625	-312.4691772460938	975.5112915039065	-961.5108642578127	-461.989715576172	1091.018188476563	-1085.564331054688	-482.1053161621095	1068.987060546875	-1114.173095703125	-488.9135131835939	1068.793212890625	-1059.734375	-363.6759338378907	784.3459472656252	-1247.637939453125	-302.1541442871094	726.1738891601564	-1235.471557617188	-261.3793334960938	745.4800415039064	-1221.315551757813	-310.1703491210938	666.5014038085939	-1220.912963867188	-240.2312927246094	510.6920776367189	-1184.95654296875	-241.4982452392579	505.0974731445314	-1067.672241210938	-249.8857574462891	325.9651184082032	-1109.5205078125	-301.0717773437501	287.2078857421876	-1171.781127929688	-267.4495849609376	279.2355957031251	-1141.910400390625	-291.8446655273438	208.479232788086	-1101.430908203125	-369.0598754882813	125.743392944336	-1139.067993164063	-338.5481567382813	138.1164093017578	-1054.386108398438	-441.128387451172	111.9615783691407	-1098.500366210938	-238.3787078857422	63.8562355041504	-1052.096435546875	-227.0406341552735	55.3841018676758	-1096.023803710938	-270.4733886718751	38.83630752563477	-1153.42626953125	-441.4392700195314	726.4880981445314	-891.189392089844	-402.7362365722657	672.7615356445314	-883.3665771484377	-369.8930664062501	674.2390747070314	-884.9976806640627	-428.1059875488282	592.9261474609376	-898.6228637695315	-436.5691528320314	495.5645141601564	-901.651062011719	-421.503143310547	462.8614501953126	-1011.730102539063	-549.3359985351564	378.9762878417969	-915.7808837890627	-656.6767578125001	412.5430908203126	-922.5837402343752	-636.6154174804689	371.1454467773438	-914.258728027344	-662.3433837890626	324.4412536621094	-944.0447387695315	-795.9713134765627	314.6462402343751	-947.6843872070315	-749.9931640625001	294.0309448242188	-1017.574462890625	-830.8369750976565	357.0927734375001	-1010.435729980469	-773.227233886719	148.4397583007813	-1012.567199707031	-784.0759887695315	141.4439392089844	-961.3471679687502	-831.6906738281252	174.5032806396485	-928.6372680664065	-4216.802734375001	853.0871582031252	-3944.583984375001	nan	nan	nan	nan	nan	nan	
511	2.55	-123.710693359375	1688.938720703125	-1143.622680664063	-294.2143859863282	1607.0751953125	-1218.159790039063	-275.9252014160157	1616.071166992188	-1066.218383789063	-332.0396728515626	1484.83740234375	-1148.231811523438	-425.2867431640626	1195.634155273438	-1096.820678710938	-179.2880554199219	1408.589233398438	-1147.20654296875	-255.2915496826172	1485.927124023438	-1282.16796875	-152.7385711669922	1470.048706054688	-1410.050415039063	-109.3042602539063	1484.005249023438	-1392.307250976563	-95.53270721435548	1469.554565429688	-1450.576293945313	-50.91748428344728	1465.4853515625	-1468.779052734375	-14.7387981414795	1394.893798828125	-1438.1494140625	229.163070678711	1480.827026367188	-1497.3896484375	199.7822875976563	1497.914306640625	-1561.452392578125	284.7892456054688	1531.755737304688	-1507.37060546875	-245.3429260253907	1508.26611328125	-1032.4296875	-108.6790847778321	1515.962280273438	-907.3790283203127	-89.0836868286133	1537.485595703125	-948.6328125000002	-41.58053588867188	1538.234008789063	-911.9067993164065	3.812971115112306	1543.752685546875	-912.3660888671877	26.87197303771973	1461.621459960938	-925.552185058594	268.2215576171876	1551.443359375	-984.1499023437502	267.5852050781251	1569.214477539063	-910.4086914062502	345.2355957031251	1574.750366210938	-992.0960083007815	-296.4110717773438	976.0512695312502	-1185.705932617188	-313.0007324218751	974.6757812500002	-961.5271606445315	-462.4680175781251	1090.197265625	-1085.38671875	-482.6260070800782	1068.394653320313	-1114.037963867188	-489.5198974609376	1068.189819335938	-1059.85693359375	-364.0729370117188	783.8094482421877	-1247.69189453125	-302.8550720214844	726.1762695312501	-1235.698486328125	-261.6690063476563	745.2446899414064	-1221.57568359375	-310.4332275390626	666.0814208984376	-1221.02587890625	-239.8802337646485	510.4638977050782	-1185.162109375	-241.2016754150391	504.7836303710939	-1067.942504882813	-249.7258605957032	325.8865356445313	-1109.525390625	-300.7867736816407	287.0083007812501	-1171.928833007813	-267.2189941406251	278.7051391601563	-1141.829345703125	-291.6257019042969	208.5225219726563	-1101.837890625	-369.0658874511719	125.6690979003907	-1139.1259765625	-338.5593261718751	138.1447448730469	-1054.45849609375	-441.0899047851564	111.8918838500977	-1098.53759765625	-238.4057006835938	63.87472915649415	-1052.0966796875	-227.0409240722657	55.3461380004883	-1096.043579101563	-270.4784851074219	38.87135314941407	-1153.443481445313	-441.7198181152345	725.6405029296876	-891.251892089844	-403.1903686523439	672.0451660156251	-883.4016113281252	-370.1363525390626	673.5064086914064	-885.1418457031252	-428.4497070312501	592.1044921875001	-898.7801513671877	-436.8429260253907	494.8360595703126	-901.9525146484377	-421.9053344726564	462.022674560547	-1012.089294433594	-549.8001098632814	378.4567565917969	-916.210632324219	-657.1024169921876	412.1633605957032	-922.7526855468752	-637.0736694335939	370.7771606445313	-914.5601806640627	-662.8160400390626	324.1481933593751	-944.322692871094	-796.4847412109377	314.3482055664063	-947.9656982421877	-750.1785278320314	293.4131164550782	-1017.761657714844	-831.5447387695315	356.8606262207032	-1010.528991699219	-773.538757324219	148.3002624511719	-1012.854553222656	-784.4131469726565	141.2544860839844	-961.743103027344	-832.1204223632815	174.3192749023438	-928.907409667969	-4216.780273437501	853.0486450195315	-3944.801025390626	nan	nan	nan	nan	nan	nan	
